<?xml version="1.0" encoding="UTF-8" standalone="no"?>
<!-- Created with Inkscape (http://www.inkscape.org/) -->

<svg
   width="512"
   height="512"
   viewBox="0 0 135.46666 135.46667"
   version="1.1"
   id="svg1"
   inkscape:version="1.3.2 (091e20e, 2023-11-25, custom)"
   sodipodi:docname="Logo.svg"
   xmlns:inkscape="http://www.inkscape.org/namespaces/inkscape"
   xmlns:sodipodi="http://sodipodi.sourceforge.net/DTD/sodipodi-0.dtd"
   xmlns="http://www.w3.org/2000/svg"
   xmlns:svg="http://www.w3.org/2000/svg">
  <sodipodi:namedview
     id="namedview1"
     pagecolor="#505050"
     bordercolor="#eeeeee"
     borderopacity="1"
     inkscape:showpageshadow="0"
     inkscape:pageopacity="0"
     inkscape:pagecheckerboard="0"
     inkscape:deskcolor="#505050"
     inkscape:document-units="mm"
     inkscape:zoom="0.72426347"
     inkscape:cx="438.37638"
     inkscape:cy="240.93442"
     inkscape:window-width="1920"
     inkscape:window-height="1009"
     inkscape:window-x="-8"
     inkscape:window-y="-8"
     inkscape:window-maximized="1"
     inkscape:current-layer="layer1" />
  <defs
     id="defs1" />
  <g
     inkscape:label="Layer 1"
     inkscape:groupmode="layer"
     id="layer1">
    <path
       d="m 76.523764,72.949311 c -0.05323,0 -0.0959,0.04279 -0.0959,0.0959 v 4.013317 9.585217 c -2.512007,-1.8e-5 -4.702603,1.350746 -5.89869,3.359732 -0.608701,1.022387 -0.964618,2.212058 -0.964611,3.487477 -7e-6,1.27533 0.355679,2.465153 0.964294,3.487492 1.196062,2.009115 3.386902,3.360064 5.899007,3.360044 v 9.67479 c 0.907997,0.3873 1.741323,0.93036 2.462309,1.60464 0.697033,0.70073 1.266057,1.51807 1.681288,2.41499 1.313664,2.82605 0.969325,6.14522 -0.896479,8.64143 2.810688,1.66648 5.847019,2.91895 9.015224,3.71869 0.584473,-4.1397 4.102001,-7.23377 8.282434,-7.28535 4.2075,0.006 7.77317,3.09869 8.37267,7.26328 3.1658,-0.80898 6.19842,-2.07026 9.00418,-3.74489 -1.84249,-2.48785 -2.1809,-5.78273 -0.88259,-8.59316 0.38703,-0.89002 0.92416,-1.70692 1.58791,-2.41499 0.74525,-0.69474 1.60973,-1.24935 2.5519,-1.63713 2.7815,-1.23006 6.00901,-0.8744 8.45594,0.93181 1.69032,-2.8326 2.95929,-5.89621 3.76696,-9.0944 -2.78352,-0.42728 -5.17269,-2.210076 -6.37469,-4.756794 -0.55544,-1.095313 -0.86608,-2.298346 -0.91035,-3.52566 0.0447,-1.245973 0.36377,-2.466768 0.93465,-3.575169 1.22355,-2.550457 3.6396,-4.321781 6.43998,-4.721476 -0.80613,-3.214126 -2.078,-6.293131 -3.77516,-9.139192 -2.45412,1.857276 -5.72263,2.237201 -8.53733,0.992368 -0.94229,-0.388251 -1.80679,-0.943394 -2.5519,-1.6387 -0.68446,-0.732218 -1.23355,-1.580138 -1.62167,-2.504262 h -9.55272 c 3e-5,3.781593 -3.07292,6.847243 -6.863306,6.847218 -3.790369,2.5e-5 -6.862987,-3.065625 -6.862962,-6.847218 h -9.544211 z"
       style="fill:none;stroke:#1d1d1d;stroke-width:3.175;stroke-linejoin:round;stroke-miterlimit:5.2;stroke-dasharray:none;stroke-opacity:1"
       id="path32" />
    <path
       d="m 130.58638,19.137505 c 0,-0.0531 -0.0429,-0.09591 -0.0961,-0.09591 h -13.63016 c 3e-5,-3.781644 -3.07278,-6.847318 -6.86321,-6.847294 -3.79043,-2.4e-5 -6.86324,3.06565 -6.86321,6.847294 H 89.503565 c -0.05322,0 -0.09614,0.04282 -0.09614,0.09591 v 13.598516 c 3.790426,-2.2e-5 6.863238,3.065657 6.863213,6.847292 2.5e-5,3.781636 -3.072787,6.847317 -6.863213,6.847295 v 13.598517 c 0,0.05309 0.04292,0.09591 0.09614,0.09591 H 103.1337 c -3e-5,3.781657 3.07276,6.847315 6.86321,6.847293 3.79045,2.2e-5 6.86324,-3.065636 6.86321,-6.847293 h 13.63013 c 0.0532,0 0.0961,-0.04283 0.0961,-0.09591 V 46.430608 c -3.79042,2.2e-5 -6.86322,-3.065659 -6.86321,-6.847295 -1e-5,-3.781635 3.07279,-6.847314 6.86321,-6.847292 z"
       style="fill:none;stroke:#1d1d1d;stroke-width:3.175;stroke-linejoin:round;stroke-miterlimit:5.2;stroke-dasharray:none;stroke-opacity:1"
       id="path29" />
    <path
       d="m 44.756129,28.605204 c -5.979081,0.03891 -11.636506,2.836588 -15.456464,7.643695 -0.738614,0.916242 -1.401641,1.896664 -1.981579,2.930103 -1.261572,2.257093 -2.112367,4.738877 -2.508999,7.31974 -5.994207,1.24787 -10.316739,6.738679 -10.333434,13.126008 6.1e-5,7.411821 5.750159,13.420886 12.842433,13.420941 0.05445,-0.0062 0.108988,-0.01246 0.163393,-0.01923 0.01617,0.0043 0.02704,0.01923 0.0445,0.01923 h 8.070802 13.630075 c -2.5e-5,-3.781607 3.072901,-6.847548 6.863302,-6.847527 3.790402,-2.1e-5 6.863321,3.06592 6.863303,6.847527 h 13.630073 c 0.05323,0 0.09621,-0.0431 0.09621,-0.09621 V 59.351266 c 3.790406,2.1e-5 6.863009,-3.065917 6.862984,-6.84753 2.5e-5,-3.781618 -3.072578,-6.847238 -6.862984,-6.847213 V 32.906202 32.057988 c 0,-0.0531 -0.04298,-0.09589 -0.09621,-0.09589 h -2.320993 c -1.472558,-0.437135 -3.004962,-0.674403 -4.562179,-0.675354 -1.515031,0.01191 -3.007708,0.248477 -4.445785,0.675354 -0.808959,0.24013 -1.601734,0.535546 -2.367359,0.899944 -1.250986,0.595404 -2.436201,1.351412 -3.523445,2.260744 -3.816966,-4.160145 -9.092555,-6.513925 -14.607622,-6.51758 z"
       style="fill:none;stroke:#1d1d1d;stroke-width:3.175;stroke-linejoin:round;stroke-miterlimit:5.2;stroke-dasharray:none;stroke-opacity:1"
       id="path33" />
    <path
       d="m 56.090158,66.198311 c -3.790428,-1.9e-5 -6.863322,3.065576 -6.863301,6.847217 H 35.596779 11.308365 c -4.8011297,0 -8.6663446,3.865213 -8.6663446,8.666343 v 27.614069 c 0,4.80113 3.8652149,8.66636 8.6663446,8.66636 h 39.116841 11.329588 c 0.755079,-1.09989 1.198359,-2.4297 1.19835,-3.8635 h 12.18411 c 0.91303,-1.3733 1.445968,-3.02312 1.445968,-4.80286 v -8.89629 c -3.745545,-0.0519 -6.766801,-3.093283 -6.766777,-6.842481 -2.4e-5,-3.749196 3.021232,-6.790577 6.766777,-6.84248 0.03239,-4.52e-4 0.06372,-0.0049 0.09621,-0.0049 V 73.141271 c 0,-0.0531 -0.043,-0.09589 -0.09621,-0.09589 h -8.666345 -4.963733 c 2.4e-5,-3.781642 -3.072558,-6.847236 -6.862986,-6.847218 z"
       style="fill:none;stroke:#1d1d1d;stroke-width:3.175;stroke-linejoin:round;stroke-miterlimit:5.2;stroke-dasharray:none;stroke-opacity:1"
       id="path36" />
    <rect
       style="fill:#ded4c8;stroke:#1d1d1d;stroke-width:3.175;stroke-linejoin:round;stroke-miterlimit:5.2;stroke-dasharray:none;stroke-opacity:1"
       id="rect35"
       width="38.146561"
       height="0.4058145"
       x="20.539351"
       y="126.31256" />
    <rect
       style="fill:#ded4c8;stroke:#1d1d1d;stroke-width:3.175;stroke-linejoin:round;stroke-miterlimit:5.2;stroke-dasharray:none;stroke-opacity:1"
       id="rect36"
       width="14.406414"
       height="2.8407013"
       x="32.409416"
       y="123.47187" />
    <circle
       style="fill:none;stroke:#1d1d1d;stroke-width:3.175;stroke-linejoin:round;stroke-miterlimit:5.2;stroke-dasharray:none;stroke-opacity:1"
       id="path37"
       cx="97.077667"
       cy="93.587166"
       r="7.6820626" />
  </g>
</svg>
