<?xml version="1.0" encoding="UTF-8" standalone="no"?>
<!-- Created with Inkscape (http://www.inkscape.org/) -->

<svg
   width="128"
   height="128"
   viewBox="0 0 33.866666 33.866666"
   version="1.1"
   id="svg1"
   inkscape:version="1.3.2 (091e20e, 2023-11-25, custom)"
   sodipodi:docname="arrows.svg"
   inkscape:export-filename="arrows.png"
   inkscape:export-xdpi="384"
   inkscape:export-ydpi="384"
   xmlns:inkscape="http://www.inkscape.org/namespaces/inkscape"
   xmlns:sodipodi="http://sodipodi.sourceforge.net/DTD/sodipodi-0.dtd"
   xmlns="http://www.w3.org/2000/svg"
   xmlns:svg="http://www.w3.org/2000/svg">
  <sodipodi:namedview
     id="namedview1"
     pagecolor="#505050"
     bordercolor="#eeeeee"
     borderopacity="1"
     inkscape:showpageshadow="0"
     inkscape:pageopacity="0"
     inkscape:pagecheckerboard="0"
     inkscape:deskcolor="#505050"
     inkscape:document-units="mm"
     inkscape:zoom="4.4912329"
     inkscape:cx="28.054657"
     inkscape:cy="86.947172"
     inkscape:window-width="1920"
     inkscape:window-height="1009"
     inkscape:window-x="-8"
     inkscape:window-y="-8"
     inkscape:window-maximized="1"
     inkscape:current-layer="layer1" />
  <defs
     id="defs1" />
  <g
     inkscape:label="Layer 1"
     inkscape:groupmode="layer"
     id="layer1">
    <path
       d="m 30.059945,2.8455356 c -0.05453,-0.00383 -0.110882,0.00811 -0.161937,0.037584 L 16.933824,10.368382 3.9696391,2.8831196 C 3.9356036,2.8634693 3.8990356,2.8515109 3.862455,2.8469276 3.7527128,2.8331775 3.6406857,2.8849491 3.5817344,2.9870558 3.5031326,3.1231981 3.5495283,3.2958947 3.6856706,3.3744966 L 16.731984,10.907087 c 0.06371,0.03678 0.135467,0.04403 0.20184,0.02969 0.06637,0.01433 0.137668,0.0071 0.201376,-0.02969 L 30.181977,3.3744966 c 0.136142,-0.078602 0.182539,-0.2512985 0.103936,-0.3874408 -0.04912,-0.085089 -0.135092,-0.1351522 -0.225968,-0.1415202 z m -4.64e-4,9.9778754 c -0.05453,-0.0039 -0.110883,0.0081 -0.161936,0.03759 L 16.93336,20.346257 3.9691752,12.860995 c -0.034036,-0.01965 -0.070603,-0.03161 -0.1071843,-0.03619 -0.1097421,-0.01375 -0.2217693,0.03802 -0.2807205,0.140128 -0.078602,0.136143 -0.032206,0.308838 0.1039362,0.387441 L 16.73152,20.88496 c 0.0637,0.03678 0.135468,0.04403 0.20184,0.02969 0.06637,0.01433 0.137668,0.0071 0.201376,-0.02969 l 13.046777,-7.53259 c 0.136143,-0.0786 0.182539,-0.251298 0.103936,-0.387441 -0.04912,-0.08509 -0.135092,-0.135152 -0.225968,-0.14152 z m 0,9.977875 c -0.05453,-0.0039 -0.110883,0.0081 -0.161936,0.03759 L 16.93336,30.324132 3.9691752,22.83887 C 3.9351392,22.81922 3.8985722,22.80726 3.8619909,22.80268 3.7522486,22.78893 3.6402218,22.8407 3.5812704,22.942808 c -0.078602,0.136143 -0.032207,0.308838 0.1039362,0.387441 l 13.0463134,7.53259 c 0.0637,0.03678 0.135468,0.04403 0.20184,0.02969 0.06637,0.01433 0.137668,0.0071 0.201376,-0.02969 l 13.046777,-7.53259 c 0.136143,-0.0786 0.182539,-0.251298 0.103936,-0.387441 -0.04912,-0.08509 -0.135092,-0.135152 -0.225968,-0.14152 z"
       style="fill:#2f2114;stroke:#070503;stroke-width:2.24474;stroke-linejoin:round;stroke-miterlimit:5.2"
       id="path7" />
  </g>
</svg>
