<?xml version="1.0" encoding="UTF-8" standalone="no"?>
<!-- Created with Inkscape (http://www.inkscape.org/) -->

<svg
   width="128"
   height="128"
   viewBox="0 0 33.866666 33.866666"
   version="1.1"
   id="svg1"
   inkscape:version="1.3.2 (091e20e, 2023-11-25, custom)"
   sodipodi:docname="Fireball.svg"
   inkscape:export-filename="arrows.png"
   inkscape:export-xdpi="384"
   inkscape:export-ydpi="384"
   xmlns:inkscape="http://www.inkscape.org/namespaces/inkscape"
   xmlns:sodipodi="http://sodipodi.sourceforge.net/DTD/sodipodi-0.dtd"
   xmlns="http://www.w3.org/2000/svg"
   xmlns:svg="http://www.w3.org/2000/svg">
  <sodipodi:namedview
     id="namedview1"
     pagecolor="#505050"
     bordercolor="#eeeeee"
     borderopacity="1"
     inkscape:showpageshadow="0"
     inkscape:pageopacity="0"
     inkscape:pagecheckerboard="0"
     inkscape:deskcolor="#505050"
     inkscape:document-units="mm"
     inkscape:zoom="2.7614993"
     inkscape:cx="72.062303"
     inkscape:cy="68.26002"
     inkscape:window-width="1920"
     inkscape:window-height="1009"
     inkscape:window-x="-8"
     inkscape:window-y="-8"
     inkscape:window-maximized="1"
     inkscape:current-layer="layer1" />
  <defs
     id="defs1" />
  <g
     inkscape:label="Layer 1"
     inkscape:groupmode="layer"
     id="layer1">
    <path
       d="m 21.94078,6.5908122 c -4.08072,0.012322 -7.772728,2.4229876 -9.425265,6.1541458 -1.046885,-1.219326 -2.473217,-2.051429 -4.0498819,-2.362646 -0.1526661,2.027664 -1.8229474,3.594355 -3.8328409,3.595129 -0.9752714,-0.0037 -1.9127318,-0.382188 -2.622579,-1.05885 0.1320658,0.390624 0.201841,0.80003 0.2067057,1.212846 -9.04e-5,1.517258 -0.8719564,2.896065 -2.23345536,3.532084 0.0044647,0.0707 0.00997751,0.141335 0.01653646,0.211874 0.59552005,-0.204483 1.2203778,-0.310604 1.8500163,-0.314193 2.5430693,-1.31e-4 4.7894643,1.65685 5.5402303,4.086572 0.7866707,-0.619074 1.7597303,-0.959436 2.7641724,-0.966866 0.900341,0.01392 1.775767,0.295292 2.513025,0.807703 1.735905,3.538431 5.332036,5.782682 9.273336,5.787243 5.712012,1.7e-5 10.342537,-4.630509 10.342521,-10.342521 C 32.283317,11.221321 27.652792,6.5907961 21.94078,6.5908122 Z"
       style="fill:#d36b2b;stroke:#91303e;stroke-width:0.307176;stroke-linejoin:round;stroke-miterlimit:5.2"
       id="path12" />
    <path
       d="m 14.488027,24.038191 c -0.510759,-0.397881 -1.14046,-0.616203 -1.790072,-0.620634 -0.65403,0.0048 -1.287637,0.226346 -1.79989,0.629419 -0.48877,-1.581947 -1.9512818,-2.660811 -3.607015,-2.660819 -0.4099737,0.0024 -0.8168268,0.07147 -1.2045776,0.204638 -0.0043,-0.04594 -0.00792,-0.09193 -0.010852,-0.137976 0.8864244,-0.414095 1.4540746,-1.311765 1.4541749,-2.299601 -0.0031,-0.26875 -0.048454,-0.535289 -0.1343588,-0.789616 0.4621466,0.440518 1.0724537,0.686932 1.7073894,0.689364 1.3086651,-5.53e-4 2.3961451,-1.020699 2.4954551,-2.340942"
       style="fill:#d36b2b;stroke:#91303e;stroke-width:0.2;stroke-linejoin:round;stroke-miterlimit:5.2"
       id="path10"
       sodipodi:nodetypes="cccccccccc" />
    <path
       d="m 14.488027,9.8012851 c -0.510759,0.3978809 -1.14046,0.6162029 -1.790072,0.6206339 -0.65403,-0.0048 -1.287637,-0.226346 -1.79989,-0.6294189 -0.48877,1.5819469 -1.9512818,2.6608109 -3.607015,2.6608189 -0.4099737,-0.0024 -0.8168268,-0.07147 -1.2045776,-0.204638 -0.0043,0.04594 -0.00792,0.09193 -0.010852,0.137976 0.8864244,0.414095 1.4540746,1.311765 1.4541749,2.299601 -0.0031,0.26875 -0.048454,0.535289 -0.1343588,0.789616 0.4621466,-0.440518 1.0724537,-0.686932 1.7073894,-0.689364 1.3086651,5.53e-4 2.3961451,1.020699 2.4954551,2.340942"
       style="fill:#d36b2b;stroke:#91303e;stroke-width:0.2;stroke-linejoin:round;stroke-miterlimit:5.2"
       id="path13"
       sodipodi:nodetypes="cccccccccc" />
    <ellipse
       style="fill:#e5be3e;stroke:#bf2f37;stroke-width:0.150551;stroke-linejoin:round;stroke-miterlimit:5.2;stroke-dasharray:none"
       id="path14"
       cx="21.950657"
       cy="16.933332"
       rx="7.7915769"
       ry="7.5920796" />
    <path
       d="m 15.586917,12.552724 c -0.347801,0.410375 -0.822844,0.694921 -1.35042,0.808894 -0.532741,0.107204 -1.085692,0.03468 -1.57079,-0.206105 -0.128744,1.36964 -1.134905,2.49556 -2.481513,2.776876 -0.3338413,0.0677 -0.6764673,0.08066 -1.0144503,0.03823 0.0043,0.0381 0.0091,0.07612 0.01459,0.114065 0.791283,0.18618 1.4054673,0.819811 1.5733823,1.623203 0.04312,0.219105 0.05153,0.443582 0.02488,0.665022 0.301019,-0.436793 0.755517,-0.740893 1.271497,-0.850746 1.06443,-0.221903 2.122202,0.423031 2.427281,1.479912"
       style="fill:#e5be3e;stroke:#bf2f37;stroke-width:0.166171;stroke-linejoin:round;stroke-miterlimit:5.2"
       id="path13-0"
       sodipodi:nodetypes="cccccccccc" />
  </g>
</svg>
